<?xml version="1.0" standalone="no"?>
<!DOCTYPE svg PUBLIC "-//W3C//DTD SVG 20010904//EN"
 "http://www.w3.org/TR/2001/REC-SVG-20010904/DTD/svg10.dtd">
<svg version="1.0" xmlns="http://www.w3.org/2000/svg"
 width="2013.000000pt" height="2013.000000pt" viewBox="0 0 2013.000000 2013.000000"
 preserveAspectRatio="xMidYMid meet">
<metadata>
Created by potrace 1.14, written by Peter Selinger 2001-2017
</metadata>
<g transform="translate(0.000000,2013.000000) scale(0.100000,-0.100000)"
fill="#000000" stroke="none">
<path d="M20080 16504 c-25 -8 -61 -17 -80 -20 -19 -3 -42 -7 -50 -9 -8 -3
-33 -7 -55 -10 -39 -6 -169 -39 -346 -89 -77 -21 -89 -22 -118 -10 -62 26
-112 18 -172 -26 -120 -88 -126 -91 -189 -100 -74 -10 -87 -20 -68 -49 11 -18
10 -24 -14 -48 -21 -21 -38 -27 -79 -29 -46 -2 -56 -6 -83 -38 -47 -54 -116
-69 -116 -25 0 28 -19 22 -84 -25 -44 -33 -53 -44 -52 -68 1 -25 -6 -33 -50
-57 -27 -16 -70 -41 -93 -56 -32 -19 -59 -27 -97 -29 -39 -1 -60 -8 -79 -24
-30 -26 -97 -58 -205 -98 -41 -15 -107 -42 -146 -61 -78 -36 -95 -39 -123 -21
-15 9 -27 7 -61 -11 -40 -20 -79 -28 -105 -20 -20 6 -95 -16 -261 -78 -12 -4
-8 76 6 112 10 26 187 123 237 130 21 2 63 7 93 10 36 4 68 15 92 31 30 21 47
25 108 25 75 0 110 18 110 55 0 14 -8 16 -57 11 -89 -9 -113 -16 -178 -49 -55
-28 -68 -30 -165 -30 -86 0 -106 2 -108 15 -4 21 32 44 188 121 150 73 154 76
192 127 21 29 41 41 100 59 90 29 140 54 159 76 13 16 12 17 -6 10 -39 -15
-141 -45 -200 -58 -42 -9 -63 -19 -70 -34 -10 -21 -22 -22 -64 -9 -37 11 -147
-33 -177 -72 -27 -35 -49 -41 -79 -19 -22 16 -48 10 -95 -21 -36 -23 -61 -24
-100 -3 -12 6 -23 10 -24 8 -1 -2 -9 -19 -18 -39 -11 -25 -25 -39 -44 -43 -15
-4 -46 -27 -68 -51 -23 -24 -52 -46 -66 -49 -192 -40 -224 -44 -263 -30 -57
20 -72 18 -107 -17 -21 -21 -47 -35 -76 -40 -25 -5 -64 -21 -87 -37 -44 -29
-97 -55 -103 -50 -2 2 2 23 8 47 11 42 54 95 109 132 47 33 8 31 -78 -4 -48
-19 -146 -54 -218 -77 -192 -62 -226 -81 -240 -135 -5 -17 -13 -20 -41 -17
-52 6 -79 -4 -118 -46 -36 -38 -37 -38 -106 -36 l-70 2 -50 -48 c-50 -49 -51
-49 -79 -33 -26 16 -31 15 -79 -5 -29 -13 -80 -24 -114 -26 -46 -3 -65 -9 -77
-24 -19 -23 -87 -66 -191 -119 -59 -30 -75 -43 -77 -63 -6 -42 -42 -59 -88
-41 -22 9 -110 -18 -207 -64 -40 -18 -58 -32 -58 -45 0 -10 -10 -31 -23 -46
-22 -25 -26 -26 -57 -16 -51 18 -70 15 -126 -24 -48 -33 -58 -36 -103 -32 -43
4 -51 2 -56 -14 -12 -35 -58 -79 -142 -134 -76 -50 -86 -55 -113 -46 -32 12
-34 10 -65 -50 -16 -31 -26 -38 -60 -43 -22 -4 -49 -8 -60 -10 -11 -2 -33 -4
-49 -4 l-29 -1 21 -23 c53 -56 4 -104 -68 -67 -51 26 -57 25 -65 -7 -3 -16
-12 -36 -20 -47 -13 -17 -15 -17 -49 9 -21 16 -43 25 -53 22 -59 -18 -214 -77
-249 -95 -23 -12 -70 -46 -106 -76 -39 -34 -102 -73 -161 -101 -54 -25 -100
-45 -102 -45 -3 0 -40 -16 -82 -36 -43 -20 -116 -53 -163 -74 -47 -21 -129
-58 -183 -84 -54 -25 -100 -46 -102 -46 -3 0 -28 -11 -57 -25 -29 -13 -109
-47 -178 -74 -114 -46 -128 -54 -162 -98 -20 -26 -42 -49 -47 -51 -6 -2 -18
13 -28 32 -9 20 -19 36 -22 36 -3 0 -29 -22 -57 -48 -94 -88 -129 -112 -184
-128 -30 -8 -102 -33 -159 -55 -165 -65 -203 -63 -149 7 55 72 156 129 263
148 20 4 100 59 125 86 6 7 150 110 218 157 26 18 57 32 68 32 12 1 48 19 80
42 33 22 163 110 291 195 128 85 235 159 238 164 3 5 9 28 13 51 6 32 14 46
37 58 17 10 46 27 65 39 95 60 328 165 377 171 47 5 58 12 120 71 82 80 166
155 213 193 l35 28 -35 -17 c-47 -23 -178 -115 -216 -153 -18 -18 -38 -28 -50
-26 -10 2 -22 4 -26 4 -19 2 -5 29 32 65 22 21 40 42 40 46 0 10 -287 -135
-370 -186 -32 -20 -61 -43 -64 -51 -4 -10 -14 -13 -27 -10 -24 6 -150 -40
-219 -81 -25 -15 -63 -35 -85 -45 -141 -64 -217 -100 -345 -165 -115 -58 -151
-72 -174 -68 -18 4 -35 1 -45 -8 -18 -15 -68 -32 -121 -41 -19 -3 -42 -14 -50
-24 -8 -11 -34 -22 -57 -26 -24 -4 -45 -11 -48 -15 -11 -18 -78 -30 -93 -18
-9 8 -16 8 -20 1 -10 -15 -75 -53 -92 -53 -8 0 -71 -32 -140 -71 -261 -146
-664 -330 -690 -314 -14 9 -13 41 4 74 20 37 71 77 164 126 84 45 201 113 302
177 94 59 136 84 215 124 39 20 82 45 97 55 16 12 28 15 30 8 2 -6 33 7 71 31
52 31 83 43 131 48 67 9 124 37 191 95 l39 34 -37 7 c-21 4 -41 14 -44 22 -8
21 -22 17 -50 -16 -19 -23 -33 -30 -61 -30 -19 0 -43 -6 -51 -14 -29 -26 -412
-216 -439 -218 -15 -1 -49 2 -76 6 -43 8 -52 6 -65 -10 -45 -54 -118 -92 -205
-108 -30 -6 -65 -22 -144 -68 -48 -28 -157 -84 -242 -125 -336 -163 -457 -223
-495 -247 -50 -31 -73 -20 -50 24 23 45 169 136 234 147 35 6 59 21 72 44 10
20 10 20 -15 4 -29 -19 -56 -14 -56 10 0 29 49 89 89 109 22 12 56 34 76 50
44 36 115 46 115 16 0 -17 -27 -43 -135 -134 l-30 -25 32 9 c54 14 133 62 165
99 18 20 43 37 57 38 54 6 71 14 87 38 20 31 15 39 -19 26 -20 -8 -27 -7 -31
6 -13 32 65 86 128 88 23 1 57 11 76 23 19 12 37 22 40 23 34 5 45 10 54 26
19 35 107 99 183 132 21 10 49 31 79 59 15 14 19 42 7 42 -5 0 -35 -18 -68
-40 -71 -48 -127 -74 -178 -84 -20 -4 -94 -33 -164 -65 -262 -121 -476 -204
-523 -205 -28 -1 -61 -10 -84 -24 -21 -13 -61 -33 -90 -45 -43 -19 -81 -39
-196 -107 -8 -4 -37 -18 -65 -30 -27 -12 -61 -32 -75 -45 -35 -32 -76 -51
-139 -64 -50 -11 -94 -35 -135 -76 -8 -9 -50 -32 -93 -51 -43 -19 -95 -44
-116 -55 -28 -15 -48 -19 -73 -15 -39 8 -41 17 -14 61 16 25 36 38 96 60 42
15 99 43 126 61 27 19 92 49 144 66 66 23 94 38 94 49 0 22 28 44 72 58 20 7
51 25 70 41 18 17 49 35 68 41 50 17 104 53 123 82 11 18 29 27 59 32 24 4 55
9 70 11 15 2 47 18 72 34 24 17 50 30 58 30 21 0 70 48 65 63 -2 6 -13 11 -23
9 -20 -3 -24 -4 -114 -45 -102 -46 -134 -58 -146 -53 -6 2 -38 -11 -70 -31
-55 -33 -230 -120 -427 -212 -48 -22 -230 -102 -405 -177 -484 -208 -530 -229
-812 -373 -124 -63 -254 -129 -289 -148 -47 -24 -67 -31 -75 -22 -18 17 61 80
169 134 53 27 106 58 118 69 23 21 42 56 31 56 -12 0 -181 -94 -318 -176 -76
-46 -142 -84 -147 -84 -5 0 -9 7 -9 16 0 12 -20 5 -83 -30 -110 -62 -317 -163
-452 -221 -60 -25 -148 -64 -195 -85 -203 -92 -491 -187 -650 -214 -152 -25
-244 -28 -1010 -31 -399 -2 -750 -5 -780 -8 -30 -3 -100 -8 -155 -11 -55 -4
-111 -8 -125 -11 -25 -3 -134 -16 -180 -20 -14 -1 -44 -6 -68 -10 -23 -4 -52
-8 -65 -9 -133 -16 -441 -83 -606 -132 -103 -30 -314 -101 -356 -120 -16 -7
-70 -29 -120 -49 -322 -131 -798 -401 -1105 -628 -217 -161 -492 -412 -637
-582 -29 -33 -64 -73 -78 -90 -14 -16 -57 -70 -94 -120 -299 -394 -524 -836
-712 -1394 -42 -125 -46 -146 -33 -155 13 -10 21 -38 23 -86 2 -33 53 80 71
157 78 332 310 815 579 1203 36 52 83 118 104 145 21 28 56 73 77 100 20 28
47 61 59 75 12 14 41 47 64 75 122 143 407 425 512 506 17 13 32 26 35 29 3 3
27 24 55 45 356 284 685 476 1130 658 224 91 712 218 965 251 25 4 56 8 70 10
59 11 109 17 165 22 33 3 78 7 100 9 263 24 778 24 965 0 45 -6 92 -12 155
-20 28 -3 61 -8 75 -11 14 -3 36 -7 50 -9 124 -18 393 -92 558 -154 188 -71
368 -160 381 -188 14 -30 -6 -31 -68 -3 -55 25 -68 25 -82 -1 -13 -26 -54 -21
-102 13 -28 20 -44 22 -157 24 -69 0 -165 4 -215 8 l-90 7 25 -20 c14 -11 53
-28 87 -38 54 -15 60 -19 40 -26 -45 -18 -395 -9 -448 11 -14 6 -42 13 -61 16
-19 3 -47 10 -62 16 -15 5 -62 13 -104 16 -126 9 -142 14 -142 39 0 20 22 23
195 30 168 6 308 14 344 20 13 2 72 7 130 11 58 3 108 8 111 11 7 7 -21 22
-65 35 -43 12 -155 13 -460 4 -104 -3 -210 -1 -235 4 -68 14 -301 25 -525 25
-160 0 -209 -4 -245 -17 -25 -9 -85 -18 -135 -21 -83 -4 -250 -38 -284 -57 -8
-4 40 -9 110 -9 68 -1 133 -4 144 -6 11 -2 34 -4 50 -5 l30 -1 -27 -22 c-16
-13 -28 -25 -28 -28 0 -3 28 -7 62 -8 34 -1 69 -6 78 -11 9 -5 88 -9 176 -8
134 1 172 -2 239 -20 67 -18 103 -25 167 -31 4 -1 3 -12 -4 -26 -16 -35 -56
-40 -338 -44 -361 -4 -459 -12 -560 -43 l-35 -11 30 -9 c17 -4 91 -8 165 -8
153 0 178 -3 236 -30 22 -11 51 -20 65 -20 28 0 69 -24 121 -70 36 -32 89 -67
133 -89 11 -6 53 -20 93 -31 92 -27 94 -44 6 -47 -36 -1 -68 -3 -71 -6 -2 -3
12 -30 33 -61 27 -42 49 -62 85 -78 26 -13 47 -27 45 -33 -4 -15 -47 -34 -89
-40 -21 -3 -53 -7 -72 -10 -34 -5 -238 -105 -322 -158 -24 -15 -45 -27 -49
-27 -8 0 -122 -75 -218 -143 -41 -30 -79 -49 -97 -49 -22 -1 -34 -9 -49 -32
-41 -67 -114 -114 -240 -156 -73 -24 -151 -65 -225 -119 -27 -21 -77 -52 -110
-71 -33 -18 -120 -83 -194 -144 -73 -61 -166 -136 -206 -166 -88 -66 -134
-108 -199 -183 -53 -60 -107 -145 -85 -132 13 8 107 83 119 95 17 18 72 50 94
56 l26 6 -14 -40 c-8 -23 -20 -50 -26 -61 -21 -40 9 -20 100 66 50 48 106 97
124 109 57 39 171 62 194 39 3 -3 -17 -29 -44 -58 -28 -28 -58 -64 -67 -79
l-17 -28 27 11 c15 5 33 15 40 21 22 18 27 1 14 -41 -17 -57 -83 -118 -147
-137 -58 -17 -61 -19 -172 -184 -39 -58 -86 -120 -103 -138 -22 -24 -37 -55
-50 -105 -10 -40 -19 -73 -19 -75 0 -2 19 7 41 20 40 22 129 111 129 128 0 5
15 12 32 15 63 14 110 47 206 144 57 58 118 109 147 124 28 14 115 80 195 147
80 66 181 145 225 175 65 46 81 53 88 40 13 -25 -1 -51 -56 -104 -29 -27 -73
-70 -98 -94 -52 -49 -85 -94 -76 -104 4 -3 39 17 80 45 80 55 145 80 224 85
39 3 53 0 58 -11 9 -23 -19 -57 -74 -91 -48 -29 -58 -28 -51 4 1 6 -16 -6 -37
-25 -21 -19 -39 -36 -41 -37 -6 -2 20 -47 31 -54 13 -9 44 0 58 17 15 18 29
18 29 -1 0 -8 -19 -27 -42 -43 -24 -17 -93 -83 -155 -149 -66 -71 -129 -129
-156 -143 -41 -22 -48 -23 -85 -11 -36 12 -43 12 -65 -5 -14 -11 -32 -30 -39
-44 -46 -89 -49 -92 -69 -74 -11 9 -19 25 -19 35 0 30 -29 12 -110 -71 -41
-42 -96 -92 -122 -110 -44 -33 -68 -77 -68 -123 0 -15 -78 -172 -152 -306
l-30 -54 33 26 c19 14 54 36 79 50 141 77 168 92 199 113 19 13 49 46 65 72
17 27 51 67 75 88 24 22 80 77 125 123 155 162 201 207 246 243 25 20 94 84
153 142 111 109 159 147 235 185 39 20 42 20 33 4 -18 -34 -101 -125 -174
-191 -131 -119 -435 -431 -423 -433 46 -11 97 9 146 56 27 26 59 46 80 50 19
4 55 22 80 39 25 18 73 48 107 68 51 30 68 35 100 31 52 -7 93 15 135 71 24
32 54 54 108 81 41 21 134 70 205 110 254 141 425 211 590 240 131 23 309 15
340 -16 14 -14 -28 -43 -95 -65 -99 -33 -467 -257 -695 -422 -261 -190 -544
-446 -705 -637 -23 -27 -50 -60 -60 -72 -10 -12 -27 -34 -36 -49 -18 -26 -17
-26 1 -21 44 14 195 29 195 20 0 -13 -26 -50 -45 -65 -29 -22 -41 -63 -17 -53
49 20 89 26 209 29 121 4 136 7 197 35 109 50 286 85 302 59 3 -5 -26 -40 -65
-78 -39 -39 -66 -70 -60 -70 17 0 161 59 194 80 36 22 99 37 228 55 35 5 75
29 197 119 141 104 203 139 330 186 106 38 183 70 300 123 184 82 279 115 352
121 77 7 128 17 239 47 86 23 87 23 130 4 55 -24 123 -69 173 -115 21 -19 49
-45 62 -57 36 -33 41 -69 14 -98 -16 -18 -21 -31 -16 -49 3 -15 11 -26 16 -26
15 0 12 -71 -4 -102 -12 -22 -12 -36 -2 -75 7 -26 9 -61 6 -78 l-6 -30 -26 28
c-14 15 -29 24 -32 19 -3 -6 -22 -65 -41 -131 -19 -67 -40 -131 -46 -142 -6
-12 -11 -52 -12 -90 0 -60 -4 -73 -29 -104 -30 -36 -53 -45 -60 -23 -3 7 -13
-21 -23 -62 -18 -74 -46 -126 -102 -186 -36 -39 -88 -75 -97 -67 -10 10 -7 51
4 58 6 3 10 11 10 17 0 14 -47 -17 -105 -69 -26 -24 -52 -43 -59 -43 -6 0 -17
-12 -24 -27 -35 -79 -286 -319 -450 -431 -51 -35 -139 -86 -195 -113 -56 -27
-131 -70 -167 -94 -36 -25 -118 -75 -183 -112 -66 -37 -147 -91 -180 -118 -87
-71 -107 -84 -237 -152 -63 -34 -153 -83 -200 -110 -313 -181 -675 -313 -925
-339 -38 -3 -81 -8 -95 -10 -46 -6 -292 -15 -480 -19 -102 -2 -193 -4 -204 -4
-54 -2 62 -61 149 -76 22 -3 119 -6 215 -5 271 3 276 3 301 -13 26 -16 50 -15
86 4 20 11 49 9 171 -11 166 -27 263 -28 319 -4 21 9 73 20 115 24 43 5 88 16
100 24 32 23 88 21 88 -2 0 -54 -69 -85 -131 -60 -24 10 -44 12 -67 6 -37 -10
-37 -11 -16 -44 27 -40 64 -54 153 -58 48 -2 68 -23 48 -49 -8 -10 -34 -18
-72 -22 -33 -3 -73 -7 -90 -10 -16 -2 -48 -7 -70 -10 -22 -3 -56 -17 -76 -31
-48 -33 -98 -40 -137 -20 -18 9 -32 20 -32 25 0 21 44 44 98 50 33 4 71 15 85
24 23 15 25 21 17 43 -10 25 -33 54 -44 54 -3 0 -47 -18 -96 -41 -77 -34 -97
-39 -133 -34 -34 5 -47 3 -69 -14 -29 -23 -73 -27 -130 -11 -70 20 -159 19
-310 -4 l-27 -4 21 28 c11 15 18 32 14 38 -3 6 -74 10 -168 10 -165 0 -275 8
-313 22 -65 24 -245 41 -444 39 -86 0 -163 0 -171 0 -8 0 -26 2 -40 5 -164 37
-196 43 -207 34 -9 -8 -9 -15 4 -34 9 -14 13 -28 9 -31 -3 -4 -84 -7 -179 -8
-172 -2 -227 -8 -227 -27 0 -18 57 -62 124 -97 36 -19 66 -37 66 -41 0 -4 -13
-13 -29 -20 -22 -9 -34 -9 -50 0 -12 6 -21 8 -21 6 0 -3 -18 1 -40 9 -99 35
-211 40 -255 11 l-29 -19 27 -21 c28 -22 37 -65 15 -67 -7 -1 -29 0 -48 1 -19
2 -62 4 -95 4 -50 1 -60 -2 -63 -17 -4 -22 13 -40 91 -91 70 -46 74 -65 15
-60 -24 2 -48 6 -54 8 -6 2 -17 0 -25 -5 -11 -6 -6 -16 24 -47 20 -21 37 -43
37 -49 0 -6 -18 -14 -40 -18 -22 -4 -40 -10 -40 -14 0 -10 50 -55 85 -77 17
-10 57 -45 90 -79 33 -33 78 -69 100 -79 22 -10 53 -28 68 -38 26 -19 27 -21
13 -43 -15 -23 -14 -25 36 -64 28 -23 55 -41 59 -41 5 0 9 -6 9 -14 0 -9 -19
-20 -47 -28 l-47 -13 61 -33 c64 -34 138 -43 161 -20 9 9 17 7 34 -9 32 -29
81 -52 125 -59 21 -3 49 -7 63 -10 14 -2 54 -6 90 -9 36 -3 82 -7 103 -10 27
-3 40 0 44 11 8 21 5 23 -88 45 -91 22 -125 42 -99 60 20 13 83 5 172 -22 160
-48 180 -50 346 -35 101 10 217 10 231 2 13 -8 -10 -34 -53 -62 l-29 -19 34
-7 c19 -4 46 -10 61 -13 16 -3 51 -14 80 -26 28 -11 70 -23 92 -26 23 -3 50
-12 61 -19 19 -14 19 -14 0 -15 -11 0 -33 -3 -50 -6 -16 -3 -65 -6 -107 -7
-123 -2 -102 -22 68 -66 65 -17 139 -43 164 -57 l45 -27 -40 -8 c-42 -9 -99
-16 -150 -18 -29 -1 -29 -1 -10 -16 40 -30 109 -42 289 -49 142 -6 176 -14
176 -40 0 -12 -16 -15 -72 -16 -40 0 -86 -2 -103 -4 -163 -16 -192 -23 -243
-63 -29 -23 -47 -28 -84 -28 -52 1 -66 -17 -26 -34 22 -8 127 -28 193 -35 66
-7 112 -18 162 -37 56 -21 76 -38 46 -39 -10 0 -25 -2 -33 -4 -8 -1 -33 -6
-55 -9 -68 -10 -99 -18 -120 -29 -18 -9 -15 -12 25 -21 25 -6 45 -15 45 -20 0
-16 -114 -41 -182 -39 -46 1 -32 -14 19 -21 83 -11 285 -24 493 -31 233 -9
273 -12 347 -29 63 -15 268 -23 328 -12 14 2 52 7 85 10 33 3 69 8 80 10 88
16 117 16 162 1 47 -17 57 -19 120 -31 36 -7 76 -40 67 -56 -11 -18 -113 -58
-198 -78 -136 -32 -334 -43 -451 -25 -49 7 -485 17 -485 10 0 -1 77 -22 170
-45 132 -32 176 -47 195 -66 18 -18 35 -24 70 -24 41 0 45 -2 45 -25 0 -32 23
-44 69 -35 62 11 93 2 131 -39 l35 -38 87 3 c89 3 118 -7 118 -40 0 -31 40
-49 110 -52 70 -2 160 -34 160 -56 0 -11 497 -5 545 5 11 3 47 8 80 11 236 27
454 87 645 178 69 33 121 52 150 53 25 2 62 10 82 18 43 18 148 94 148 106 0
5 -15 6 -32 2 -77 -16 -88 5 -20 36 50 24 80 41 149 86 24 15 47 27 52 27 5 0
14 7 21 15 10 12 16 11 40 -6 22 -17 38 -20 78 -17 l51 5 -15 -30 c-17 -33
-25 -33 80 1 39 12 55 13 79 4 27 -10 42 -5 181 65 400 202 713 410 985 655
47 43 72 58 93 58 23 0 46 15 96 63 73 68 157 147 212 197 38 35 356 338 374
356 296 300 604 633 767 828 13 16 37 43 52 60 16 17 75 92 131 166 178 234
241 339 215 356 -5 3 33 54 84 112 128 146 270 337 236 316 -89 -52 -225 -182
-405 -384 -121 -136 -243 -256 -314 -310 -49 -37 -37 -19 36 54 101 102 338
374 478 550 22 26 63 71 92 100 28 28 98 119 153 203 101 151 138 219 126 232
-7 6 -27 -15 -99 -102 -21 -26 -47 -52 -58 -58 -18 -10 -18 -9 -8 11 6 12 64
101 129 198 131 197 291 449 291 457 0 16 -33 -22 -162 -184 -77 -97 -150
-187 -161 -201 -12 -14 -46 -54 -76 -90 -96 -116 -251 -268 -251 -247 0 2 50
66 111 143 126 159 214 288 289 424 29 52 73 124 99 160 90 127 153 240 132
240 -11 0 -89 -85 -146 -160 -27 -36 -54 -71 -60 -78 -31 -41 -129 -142 -132
-138 -3 3 8 24 25 48 35 52 95 168 89 174 -17 18 -75 -51 -188 -221 -29 -44
-57 -85 -63 -91 -6 -7 -20 -24 -31 -40 -36 -51 -188 -214 -199 -214 -2 0 89
125 203 278 114 152 225 303 246 334 33 46 47 58 82 67 28 7 50 22 66 44 38
50 59 96 52 117 -4 13 8 43 34 86 24 39 41 80 41 97 l0 30 -22 -19 c-47 -40
-103 -103 -188 -214 -48 -63 -105 -131 -125 -150 -35 -33 -37 -34 -30 -10 3
14 45 83 93 153 76 114 129 207 117 207 -3 0 0 12 5 26 10 25 9 26 -17 19 -15
-3 -53 -31 -86 -61 -32 -30 -73 -62 -90 -70 -29 -15 -27 -11 21 39 28 31 52
62 53 69 0 7 2 21 4 31 3 14 -2 13 -27 -8 -31 -26 -48 -32 -48 -15 0 5 38 49
84 98 97 103 113 127 96 148 -11 12 -18 9 -49 -16 -53 -43 -89 -75 -156 -139
-33 -32 -87 -75 -120 -96 -33 -21 -89 -61 -125 -90 -67 -54 -128 -90 -137 -82
-2 3 16 25 41 50 47 45 63 87 29 72 -10 -5 -34 -10 -53 -13 -41 -5 -41 -4 60
71 41 30 98 76 125 101 28 25 53 46 58 46 6 0 11 -24 8 -42 -2 -13 10 -9 57
18 47 27 70 49 88 80 9 15 7 22 -9 34 -20 17 -20 16 227 222 46 39 423 332
555 433 105 80 93 70 271 210 147 116 273 211 390 294 83 59 130 112 130 148
0 25 -28 5 -370 -252 -214 -161 -452 -332 -620 -444 -85 -57 -163 -111 -172
-119 -10 -8 -18 -13 -18 -10 0 3 55 50 122 104 133 107 165 133 182 149 6 6
52 42 101 80 50 38 92 72 95 75 3 3 75 60 160 125 85 66 162 125 170 132 15
12 94 72 518 397 189 145 232 183 232 202 0 14 11 34 27 47 72 58 150 145 155
170 3 15 3 27 1 27 -2 0 -27 -17 -56 -38 -29 -21 -119 -84 -202 -139 -122 -81
-344 -241 -390 -280 -5 -5 -41 -31 -80 -58 -38 -27 -74 -53 -80 -58 -116 -90
-577 -393 -725 -475 -25 -14 -63 -36 -85 -49 -22 -13 -100 -54 -174 -91 -116
-58 -135 -65 -144 -51 -9 14 -15 14 -56 -7 -26 -12 -90 -55 -142 -96 -107 -84
-137 -104 -177 -119 -20 -7 -7 10 48 62 147 139 146 137 305 267 19 15 176
130 385 282 284 206 405 295 410 300 3 3 59 48 126 101 149 120 357 264 581
406 154 96 461 297 832 543 235 156 381 267 381 291 0 12 -125 -56 -362 -196
-9 -5 -61 -38 -115 -73 -54 -35 -133 -86 -176 -113 -42 -27 -213 -139 -380
-247 -166 -109 -356 -231 -422 -272 -66 -40 -159 -101 -207 -136 -203 -149
-1471 -994 -1433 -956 6 6 62 54 125 107 63 53 126 107 140 118 14 12 45 38
70 57 25 19 47 37 50 40 17 20 322 256 390 302 14 10 39 28 56 40 17 13 130
92 250 177 325 228 460 332 481 368 16 30 55 53 90 53 15 0 307 174 467 278
54 36 128 89 163 119 35 30 67 52 71 49 4 -2 34 6 67 19 41 17 79 44 124 88
50 49 79 68 120 81 98 31 274 135 381 225 38 32 66 48 90 50 50 4 89 31 98 66
7 27 14 31 57 37 29 4 65 19 91 37 23 17 47 31 52 31 6 0 12 3 14 8 2 4 41 31
88 61 47 30 137 89 200 130 63 42 120 78 125 80 26 11 145 115 145 127 0 7
-249 -101 -352 -152 -109 -55 -315 -167 -448 -245 -36 -20 -84 -42 -106 -48
-31 -8 -48 -21 -69 -50 -19 -29 -49 -51 -108 -81 -45 -23 -86 -45 -92 -50 -18
-13 -180 -100 -425 -227 -109 -57 -313 -171 -420 -236 -89 -53 -424 -279 -440
-297 -3 -3 -40 -31 -82 -62 -71 -53 -79 -57 -107 -47 -54 19 -49 37 35 109
164 142 304 239 722 502 40 25 116 65 170 88 53 23 108 47 122 53 24 11 231
136 338 204 29 19 57 44 63 56 15 33 47 51 64 37 11 -9 32 -2 97 33 46 25 93
55 105 66 38 36 278 177 688 403 99 55 221 127 270 161 50 33 158 105 240 160
83 55 162 111 178 125 26 25 35 43 20 41 -48 -8 -42 26 10 52 124 63 260 153
327 216 l35 33 -60 -20 c-33 -11 -118 -49 -190 -84 -71 -35 -143 -67 -160 -70
-18 -4 -39 -20 -52 -38 -19 -27 -30 -32 -67 -34 -35 -2 -60 -13 -121 -54 -124
-84 -220 -119 -232 -84 -6 19 44 71 129 131 44 32 98 71 120 87 39 27 42 28
67 13 24 -14 29 -14 53 1 25 15 56 67 50 85 -1 4 20 5 48 1 49 -6 50 -6 122
52 40 32 74 62 76 66 5 12 32 10 32 -2 0 -17 34 -11 60 11 14 11 42 31 63 45
21 13 50 42 65 63 22 32 36 41 81 51 59 13 166 66 211 104 19 16 37 22 50 19
15 -4 31 4 53 24 57 52 65 57 82 43 19 -16 44 -6 127 47 52 34 70 51 75 73 6
33 27 54 62 65 22 7 23 5 19 -19 -5 -23 -3 -26 15 -20 11 4 32 17 46 30 15 14
38 24 56 24 38 0 100 41 120 79 14 29 80 74 179 124 49 25 49 25 66 5 16 -20
17 -20 75 21 32 23 62 41 67 41 15 0 8 -59 -9 -68 -10 -6 -14 -16 -10 -26 11
-29 101 -18 177 23 31 17 70 52 70 62 0 5 -10 5 -22 1 -13 -5 -29 -7 -35 -6
-7 1 -17 2 -23 3 -30 4 10 85 49 100 14 6 49 13 76 17 70 9 224 83 231 110 6
24 64 69 134 104 37 19 49 21 74 12 31 -12 46 -8 46 11 1 7 19 30 40 52 46 46
49 56 18 49 -13 -2 -36 -7 -53 -9 -16 -3 -45 -8 -63 -11 -21 -4 -48 -23 -79
-56 -61 -63 -134 -99 -203 -100 -29 0 -66 -6 -84 -13 -17 -7 -55 -16 -83 -20
-29 -4 -53 -10 -53 -14 0 -4 -15 -23 -33 -43 -27 -29 -38 -35 -60 -31 -18 4
-34 0 -45 -10 -23 -21 -85 -47 -112 -47 -13 0 -20 7 -20 20 0 11 -3 20 -6 20
-3 0 -44 -27 -90 -61 -104 -74 -142 -88 -166 -59 -20 24 -15 42 21 84 34 38
95 63 209 87 98 20 121 28 142 53 7 9 28 16 47 16 39 0 67 12 104 46 l26 25
26 -21 c33 -26 47 -19 47 26 0 20 5 34 13 35 49 3 87 32 87 68 0 9 -3 12 -8 6
-19 -26 -139 -95 -165 -95 -8 0 -20 6 -26 14 -19 23 9 64 85 126 38 30 83 67
99 83 28 26 34 27 90 21 56 -5 64 -3 118 30 59 35 76 36 109 8 17 -14 15 -18
-27 -58 -25 -23 -45 -47 -45 -52 0 -9 53 9 137 45 6 2 15 19 19 36 9 45 19 54
80 72 31 9 58 24 64 35 18 33 11 42 -17 22 -48 -32 -63 -34 -63 -8 0 32 37 83
85 116 31 22 55 29 110 33 56 4 95 16 195 60 69 30 150 69 180 88 57 34 103
41 168 25 29 -8 32 -7 32 15 0 74 109 147 201 134 47 -7 51 -5 85 29 28 28 44
36 71 36 53 0 100 26 106 59 7 32 48 62 191 137 95 50 100 51 140 40 22 -6 48
-11 56 -10 8 1 22 2 30 3 8 1 28 21 43 46 25 40 36 47 94 65 71 22 84 20 65
-10 -10 -17 -10 -20 3 -20 10 0 26 22 40 54 18 41 30 55 51 60 33 9 74 37 129
88 22 21 55 41 73 44 18 4 35 10 38 15 10 16 106 40 119 29 35 -29 343 87 380
143 23 36 38 39 76 13 l34 -23 90 36 c89 36 90 36 96 76 4 22 6 41 5 41 0 1
-21 -5 -46 -12z m-14247 -4526 c12 -6 44 -12 72 -13 67 -2 197 -39 300 -86 89
-40 225 -89 305 -109 47 -12 99 -25 115 -30 17 -5 55 -17 85 -26 60 -18 160
-64 160 -73 0 -37 -164 -49 -293 -21 -147 32 -389 119 -582 209 -115 54 -154
69 -208 82 -60 14 -67 26 -33 56 30 26 47 28 79 11z m3943 -4314 c-3 -26 -21
-71 -40 -103 -41 -67 -194 -239 -362 -406 -126 -126 -173 -167 -238 -203 l-38
-23 27 48 c55 96 167 232 315 383 165 169 249 258 295 314 16 20 34 36 39 36
5 0 6 -21 2 -46z m-711 -236 c-14 -82 -21 -91 -135 -168 -161 -109 -182 -143
-255 -410 -10 -36 -32 -91 -49 -124 -25 -48 -38 -62 -72 -77 -53 -22 -67 -44
-114 -172 -29 -79 -35 -107 -27 -122 26 -52 51 -40 117 56 61 90 140 169 168
169 19 0 43 20 182 153 l85 82 3 -40 c8 -91 -27 -144 -167 -255 -97 -77 -298
-245 -330 -277 -48 -48 -101 -116 -101 -130 0 -14 49 0 88 25 17 11 26 12 34
4 9 -9 -11 -35 -80 -104 -50 -51 -110 -116 -132 -145 l-40 -51 31 -7 c25 -6
40 -1 83 29 58 40 83 45 88 19 7 -32 -4 -53 -27 -53 -14 0 -42 -21 -76 -58
-78 -83 -129 -143 -129 -153 0 -14 28 -11 60 6 28 14 30 14 30 -2 0 -49 -77
-144 -110 -136 -5 2 -67 -54 -139 -123 -114 -110 -129 -128 -125 -152 3 -14 7
-28 9 -31 15 -14 63 3 121 43 51 36 69 44 75 34 29 -45 -5 -90 -161 -212 -113
-88 -163 -120 -174 -109 -13 14 -5 42 23 73 15 18 27 42 26 54 -1 11 -3 29 -4
39 -2 27 -18 20 -71 -29 -27 -25 -54 -43 -59 -39 -17 10 -13 55 8 115 11 30
18 56 17 58 -2 1 -34 -12 -72 -29 -46 -22 -87 -51 -125 -89 -31 -32 -67 -61
-80 -65 -13 -4 -39 -15 -56 -26 -34 -19 -41 -12 -23 21 6 11 6 21 1 24 -14 9
-104 -24 -122 -45 -9 -10 -29 -21 -45 -25 -36 -9 -120 -54 -175 -94 -23 -16
-45 -27 -49 -25 -20 13 12 58 106 148 69 67 100 104 97 116 -3 11 14 34 49 67
59 55 52 49 339 278 238 190 309 262 416 427 43 66 128 190 190 277 61 86 170
254 241 372 72 118 135 220 140 225 28 32 44 72 71 175 17 63 44 157 60 208
16 51 29 95 29 99 -1 13 60 68 112 102 65 41 199 110 218 111 8 0 11 -10 7
-32z m-3187 -294 c-3 -28 -45 -66 -88 -79 -14 -4 -52 -36 -86 -71 -35 -36 -78
-70 -102 -79 -23 -10 -42 -23 -42 -31 0 -27 -46 -63 -84 -66 -29 -2 -40 -8
-47 -25 -5 -13 -15 -23 -23 -23 -7 0 -45 -21 -82 -46 -66 -44 -124 -104 -196
-203 -26 -36 -43 -47 -79 -56 -26 -7 -72 -25 -103 -40 -31 -15 -59 -25 -62
-22 -13 12 141 117 173 117 12 0 41 43 32 47 -2 2 14 26 37 55 23 29 44 62 48
74 3 12 33 46 65 75 43 40 60 64 65 91 6 34 14 40 135 107 71 39 135 71 143
71 8 0 18 4 24 9 5 5 26 12 47 15 38 6 100 35 172 80 50 32 55 32 53 0z m-945
-290 c15 -15 -35 -84 -80 -111 -27 -15 -70 -44 -98 -64 -94 -68 -142 -92 -178
-85 -26 5 -41 0 -82 -30 -53 -38 -124 -77 -165 -89 -23 -7 -23 -5 12 37 20 24
43 60 51 78 9 19 22 43 30 52 16 20 99 63 140 73 15 4 43 16 63 26 20 10 70
26 110 35 53 11 86 26 116 50 41 32 67 41 81 28z m-1465 -1021 c110 22 130 21
135 0 10 -47 -60 -118 -176 -179 l-71 -37 -60 12 c-34 7 -74 15 -91 18 -69 11
-69 68 0 97 20 9 35 22 35 31 0 10 7 29 16 44 l16 28 54 -15 c49 -14 63 -14
142 1z"/>
<path d="M11737 15659 c-230 -55 -333 -303 -207 -498 32 -51 76 -89 141 -123
66 -34 185 -32 260 5 63 31 127 93 159 157 80 157 6 361 -157 437 -58 27 -139
36 -196 22z m89 -53 c15 -16 18 -44 6 -62 -10 -16 -46 -33 -102 -50 -55 -16
-93 -52 -151 -141 -23 -35 -42 -63 -44 -63 -1 0 -1 25 1 56 6 106 73 205 176
262 46 25 88 24 114 -2z"/>
<path d="M3108 10690 c-79 -76 -172 -174 -208 -217 -35 -43 -67 -80 -71 -83
-22 -18 -118 -170 -110 -174 13 -8 43 21 92 90 24 33 136 156 249 273 184 190
233 251 201 251 -6 0 -75 -63 -153 -140z"/>
<path d="M1252 10754 c-23 -19 -42 -42 -42 -49 0 -8 -31 -47 -69 -87 -109
-116 -158 -183 -176 -238 -4 -14 -15 -30 -24 -37 -10 -6 -18 -28 -19 -50 -4
-59 -11 -93 -27 -123 -20 -39 -42 -45 -53 -12 -8 25 -11 22 -64 -64 -130 -211
-223 -462 -244 -659 -4 -33 -7 -65 -8 -71 -1 -7 -17 -41 -34 -76 -21 -41 -34
-81 -35 -111 -1 -26 -1 -47 0 -47 1 0 17 9 36 20 37 22 58 19 91 -11 14 -13
17 -26 13 -51 -21 -115 -15 -182 15 -176 10 2 12 -20 10 -97 -1 -55 1 -113 6
-130 l8 -29 28 31 c44 49 78 57 121 27 35 -24 37 -24 65 -7 30 17 47 46 75
126 17 48 30 59 87 71 52 11 148 180 188 334 28 106 38 193 29 267 -6 60 55
318 101 420 18 41 23 83 25 205 2 100 7 136 24 178 22 56 28 117 11 127 -5 3
-10 -1 -10 -9 0 -10 -9 -16 -21 -16 -18 0 -20 5 -16 38 5 41 11 60 35 112 20
42 25 145 9 195 l-10 35 -20 -21 -20 -22 -18 22 c-9 11 -19 21 -21 21 -3 0
-23 -16 -46 -36z"/>
<path d="M3074 10242 c-21 -16 -73 -69 -114 -118 -41 -49 -103 -121 -137 -161
-34 -40 -69 -88 -77 -108 -8 -19 -46 -77 -83 -127 -82 -112 -103 -144 -103
-158 0 -13 56 25 83 55 31 36 251 328 282 375 54 82 114 155 144 178 41 30 67
70 54 83 -6 6 -23 -1 -49 -19z"/>
<path d="M3570 9943 c-36 -13 -67 -55 -76 -105 -2 -10 -5 -23 -6 -30 -5 -20
43 -9 79 18 35 26 50 50 63 95 8 27 7 29 -18 28 -15 0 -34 -3 -42 -6z"/>
<path d="M262 9128 c-6 -8 -16 -26 -21 -41 -7 -17 -23 -32 -42 -39 -52 -18
-99 -139 -134 -348 -14 -85 -15 -99 -1 -124 16 -31 13 -44 -25 -118 -28 -54
-33 -126 -33 -488 -1 -316 10 -482 44 -700 6 -36 13 -83 16 -105 3 -22 9 -53
14 -70 5 -16 18 -72 29 -124 55 -253 182 -597 331 -891 78 -155 94 -184 103
-188 4 -2 7 -8 7 -12 0 -19 98 -150 112 -150 8 0 -68 152 -107 215 -12 18
-135 281 -155 330 -58 142 -89 226 -135 365 -69 210 -74 232 -105 395 -10 55
-21 114 -24 130 -9 47 -21 153 -41 360 -23 251 -24 612 0 730 2 11 4 46 4 78
l1 58 48 21 c26 11 48 22 50 23 8 7 17 76 27 215 20 263 24 299 44 380 10 41
20 81 22 89 5 18 -15 25 -29 9z"/>
<path d="M5280 8837 c-14 -6 -27 -14 -30 -18 -6 -7 -202 -123 -295 -174 -118
-64 -238 -141 -285 -183 -44 -38 -48 -39 -135 -45 -107 -6 -164 -26 -307 -106
-57 -32 -118 -61 -134 -65 l-29 -7 32 28 c18 15 53 45 78 66 41 35 57 69 37
81 -4 2 -39 -15 -77 -38 -87 -53 -147 -86 -300 -166 -318 -167 -372 -200 -358
-223 2 -4 51 17 107 48 86 46 105 53 119 42 21 -16 12 -29 -40 -55 -22 -12
-51 -34 -62 -49 -19 -23 -20 -28 -6 -35 28 -16 16 -35 -35 -57 -51 -22 -90
-53 -90 -71 0 -16 23 -11 50 10 27 21 55 26 65 10 12 -20 -17 -50 -79 -79 -79
-38 -96 -56 -71 -75 20 -14 33 -10 213 70 44 19 51 20 43 6 -14 -27 -50 -56
-128 -106 -40 -25 -73 -51 -73 -57 0 -18 67 -5 130 24 69 32 110 43 110 29 0
-14 -80 -82 -97 -82 -16 0 -17 -21 -1 -55 17 -38 87 -30 158 20 22 15 44 23
53 19 27 -10 20 -22 -22 -44 -22 -11 -66 -44 -98 -74 l-58 -54 40 -39 c22 -21
47 -52 55 -68 20 -41 27 -44 67 -33 19 5 41 8 50 6 31 -6 -44 -64 -108 -83
-34 -11 -75 -32 -97 -52 l-37 -33 101 5 c268 14 492 61 638 135 56 29 83 38
61 22 -5 -4 -22 -33 -37 -64 l-28 -58 25 -6 c14 -3 25 -10 25 -14 0 -10 -58
-60 -70 -60 -17 0 1 -27 25 -38 21 -10 37 -5 107 27 96 45 187 87 309 142 317
143 524 262 702 402 154 122 264 264 255 332 l-3 26 -35 -31 c-40 -35 -49 -27
-24 22 21 38 28 74 19 96 -5 13 -8 12 -21 -6 -15 -22 -64 -52 -84 -52 -7 0 -9
12 -4 35 7 38 -2 43 -38 24 -50 -27 -22 11 93 125 134 133 188 213 196 290 l5
41 -54 -60 c-95 -107 -308 -318 -315 -312 -3 4 14 37 39 74 62 93 70 110 66
141 -4 38 -40 42 -56 7 -19 -42 -118 -161 -164 -197 -23 -18 -75 -64 -116
-103 -40 -38 -79 -75 -86 -81 -20 -19 -158 -110 -195 -129 l-35 -17 32 40 c56
71 128 139 176 167 30 17 76 63 125 124 97 118 124 146 177 177 23 14 49 35
57 47 8 13 39 49 67 80 l53 58 -22 20 c-28 27 -27 42 13 115 33 59 34 62 15
67 -12 3 -20 13 -19 24 4 33 0 34 -40 13 -21 -11 -47 -20 -56 -20 -16 0 -16 1
0 19 9 10 20 36 23 57 6 39 6 39 -13 19 -30 -33 -78 -64 -107 -69 -30 -5 -35
5 -12 24 8 7 15 21 15 31 0 23 -22 24 -78 5 l-40 -14 11 29 c14 37 1 51 -33
36z"/>
<path d="M5803 8743 c-31 -20 -50 -43 -73 -92 -17 -36 -40 -83 -51 -103 -11
-21 -19 -50 -17 -65 3 -28 4 -27 64 34 61 63 116 156 129 221 8 39 1 40 -52 5z"/>
<path d="M3145 7181 c-3 -5 -1 -12 5 -16 5 -3 10 1 10 9 0 18 -6 21 -15 7z"/>
<path d="M1081 6824 c6 -7 17 -10 25 -7 20 7 18 10 -11 15 -20 4 -23 2 -14 -8z"/>
<path d="M3496 6605 c-9 -26 -7 -32 5 -12 6 10 9 21 6 23 -2 3 -7 -2 -11 -11z"/>
<path d="M1770 5085 c0 -9 6 -12 15 -9 8 4 12 10 9 15 -8 14 -24 10 -24 -6z"/>
<path d="M7400 4398 c-42 -26 -185 -121 -335 -224 -100 -69 -200 -122 -373
-200 -69 -31 -100 -64 -60 -64 85 1 302 101 443 204 50 37 128 92 174 124 93
63 163 125 180 160 14 27 14 27 -29 0z"/>
</g>
</svg>
